<?xml version="1.0" encoding="UTF-8" standalone="no"?><!DOCTYPE svg PUBLIC "-//W3C//DTD SVG 1.1//EN" "http://www.w3.org/Graphics/SVG/1.1/DTD/svg11.dtd"><svg width="100%" height="100%" viewBox="0 0 450 110" version="1.1" xmlns="http://www.w3.org/2000/svg" xmlns:xlink="http://www.w3.org/1999/xlink" xml:space="preserve" xmlns:serif="http://www.serif.com/" style="fill-rule:evenodd;clip-rule:evenodd;stroke-linejoin:round;stroke-miterlimit:2;"><path d="M10.523,97.884c-0,0 422.248,2.047 427.985,0c5.737,-2.046 -0.894,-2.909 -0.894,-2.909c-0,0 -436.26,9.001 -427.091,2.909Z" style="fill:#e412f2;"/><path d="M440.703,90.884c-0,0 -422.249,2.047 -427.986,0c-5.737,-2.046 0.894,-2.909 0.894,-2.909c0,0 436.261,9.001 427.092,2.909Z" style="fill:#ffafce;"/><path d="M11.874,22.091c0,0 422.249,-2.046 427.986,0c5.737,2.047 -0.895,2.909 -0.895,2.909c0,0 -436.26,-9.001 -427.091,-2.909Z" style="fill:#e40df2;"/><path d="M442.054,29.091c0,0 -422.248,-2.046 -427.986,0c-5.737,2.047 0.895,2.909 0.895,2.909c-0,0 436.26,-9.001 427.091,-2.909Z" style="fill:#ffafce;"/></svg>